<svg xmlns="http://www.w3.org/2000/svg" viewBox="0 0 133.29 65.87"><defs><style>.cls-1{fill:#fff;}</style></defs><g id="Layer_2" data-name="Layer 2"><g id="Layer_1-2" data-name="Layer 1"><path class="cls-1" d="M45.54,64.8c-2.19,0-4.39,0-6.58,0a12.71,12.71,0,0,1-2.14-.2,1.4,1.4,0,0,1-1.29-1.48,1.47,1.47,0,0,1,1.26-1.65,22.71,22.71,0,0,1,3-.16c2,0,2.52-.53,2.9-2.43.87-4.34,1.81-8.67,2.71-13,.67-3.25,1.29-6.5,2-9.74.25-1.17.62-2.31.93-3.46a7.35,7.35,0,0,0,.32-1.52,1.1,1.1,0,0,0-.39-.89c-.21-.1-.69.12-.9.34C43,35.12,38.89,39.78,34.46,44.14c-1.89,1.86-1.76,3.48-1,5.66a13.76,13.76,0,0,1-.12,9.07,17.49,17.49,0,0,1-2.28,4.55A5.3,5.3,0,0,1,27,65.81c-1.77.09-3.53.27-5-1.21a5.21,5.21,0,0,1-1.63-3.32c-.54-4.43,1.18-8,4-11.26,1.25-1.43,1.25-2.32.41-4-1.38-2.78-2.64-5.61-4-8.43-1-2.05-1.88-4.12-2.86-6.16-.16-.32-.54-.52-.81-.77a3.44,3.44,0,0,0-.56.95c-1.41,6.6-2.78,13.21-4.18,19.81C11.79,54,11.21,56.49,10.66,59c-.41,1.84.14,2.4,2,2.32a3.52,3.52,0,0,1,2.11.49,2,2,0,0,1,.68,1.71c-.09.46-.82.86-1.35,1.13a2.92,2.92,0,0,1-1.3.12q-4.91,0-9.82,0c-.36,0-.72,0-1.07,0C.93,64.7.08,64.43,0,63.23s.59-1.76,1.88-1.89a23.08,23.08,0,0,1,2.63,0,2.12,2.12,0,0,0,2.25-1.6c.1-.3.21-.61.28-.92.6-3,1.17-6,1.8-9,.79-3.71,1.63-7.41,2.44-11.11.11-.47.23-.94.32-1.41.64-3.13,1.26-6.26,1.91-9.38.35-1.65-.22-2.35-1.9-2.27-.43,0-.87.1-1.31.08a1.81,1.81,0,0,1-1.85-1.81,1.71,1.71,0,0,1,1.81-1.69c2.07,0,4.15,0,6.23,0,1.24,0,2.47,0,3.71.08A2.5,2.5,0,0,1,22.53,24c1.72,3.81,3.58,7.55,5.34,11.34.77,1.65,1.45,3.35,2.12,5.05.56,1.41,1.5,1.69,2.53.61,4.58-4.84,9.12-9.71,13.7-14.56a30.48,30.48,0,0,1,3.23-3.2,4.89,4.89,0,0,1,2.6-1c2.83-.13,5.67-.06,8.5,0a3.34,3.34,0,0,1,1.63.27c.52.31,1.22.92,1.2,1.37a2.22,2.22,0,0,1-1.14,1.57,5,5,0,0,1-2.34.25c-2.46-.11-2.93.33-3.4,2.74-.77,3.92-1.68,7.8-2.5,11.7-.76,3.67-1.46,7.36-2.24,11-.6,2.84-1.26,5.67-1.94,8.5-.25,1,0,1.54,1.08,1.64.79.08,1.6,0,2.39.16a1.68,1.68,0,0,1,1.59,1.89c0,1.17-.84,1.48-1.79,1.49-2.52,0-5,0-7.55,0Zm-17-6.71c-.16-1.39-.28-2.79-.51-4.16a1.43,1.43,0,0,0-.72-1,1.09,1.09,0,0,0-1,.45,52,52,0,0,0-2.54,5.33A3.76,3.76,0,0,0,24,61.08c.54,1.52,1.92,1.76,3.14.7S28.39,59.45,28.51,58.09Z"/><path class="cls-1" d="M110.33,52.87c-.52,0-1,0-1.55,0-5.15.2-8.92-2.16-11.76-6.29a10.16,10.16,0,0,1-1-10.37c1.37-3,3.71-5.43,7.28-5.95a5.9,5.9,0,0,1,6.14,7.63c-.64,1.79-3.32,3.16-4.93,2.4-2.16-1-3.34-2.81-2.49-5.13,0,0,0-.08,0-.11.09-.59.17-1.17.25-1.75a5.77,5.77,0,0,0-1.94.66c-3.27,2.71-3.77,7.82-1.42,11.41C101.84,49.8,106,51,111,50.78a11.62,11.62,0,0,0,7-2.71,10.37,10.37,0,0,0,3.74-7.47,10.29,10.29,0,0,0-2.63-8.3c-3-3.23-6-6.39-8.94-9.65-3.55-3.92-5.12-8.48-3.64-13.69a11.18,11.18,0,0,1,3.69-5.48c4.21-3.53,9.12-4,14.23-3.06a20.6,20.6,0,0,1,5,2c.92.44,1.52.46,2.11-.47.21-.33.75-.44,1.14-.65a6,6,0,0,1,.59,1.22,2.81,2.81,0,0,1-.09,1.18c-.7,3.28-1.42,6.55-2.14,9.83-.06.27-.05.64-.22.79a14.76,14.76,0,0,1-1.43,1,6.15,6.15,0,0,1-.82-1.53,3,3,0,0,1,.29-1.39c.72-2.14.05-4.19-.39-6.25a2.24,2.24,0,0,0-.7-.94c-.28-.28-.68-.45-.94-.74-2.44-2.71-5.61-2.7-8.75-2.1a7.86,7.86,0,0,0-3.34,2.16,7.57,7.57,0,0,0-1.85,9c.94,2.24,2.78,4.16,4.44,6,1.87,2.12,4,4,6,6.06a18.23,18.23,0,0,1,5,8A13,13,0,0,1,128,41.6a17.24,17.24,0,0,1-16.27,11.29h-1.44Z"/><path class="cls-1" d="M73.76,58.88c-1.19-.07-2.39-.1-3.58-.22-3.69-.38-6.36-2.38-8.54-5.29a12.55,12.55,0,0,1-1.83-4.88A4.4,4.4,0,0,1,60,46.74a9.82,9.82,0,0,0,.4-1.62c0-2,1.36-3.26,2.5-4.61,1.82-2.14,4.33-2,6.76-1.75,1.93.21,3.44,2.6,3.35,4.92a3.6,3.6,0,0,1-3.26,3.82,3.18,3.18,0,0,1-3.14-1.6c-.72-1-1.31-2.23-.37-3.55.22-.31.13-.84.18-1.27-.47.06-1.06,0-1.41.22-2.51,1.79-3.75,7.11-2.17,9.79,1.77,3,4.26,5.18,7.92,5.5,2.91.25,5.78.38,8.47-1.27,3-1.88,5.57-6.53,4.88-10a11,11,0,0,0-2-4.3c-1.73-2.28-3.77-4.32-5.66-6.48a55.7,55.7,0,0,1-4.94-5.84,10.69,10.69,0,0,1-1-10.25c1.51-3.92,4.54-6,8.18-7.12a11.91,11.91,0,0,1,8.43.22,29.62,29.62,0,0,0,4,1.5c.55.15,1.23-.23,1.86-.34.43-.08,1-.31,1.26-.12a1.55,1.55,0,0,1,.27,1.26c-.38,2-.81,4-1.27,5.94A44.05,44.05,0,0,1,92,24c-.14.39-.7.63-1.07.93-.27-.4-.72-.78-.78-1.21a11.91,11.91,0,0,1,.17-2.13c.06-.91.11-1.82.12-2.73,0-3.41-2.6-4.85-5-5.83a6.79,6.79,0,0,0-7.6,1.8c-2.67,2.7-3.2,6.19-1.13,9.33a49.65,49.65,0,0,0,4.13,5.25c2.39,2.73,5,5.3,7.29,8.09A9.24,9.24,0,0,1,90.18,43c.15,2.71.07,5.41-1.44,7.75A17.48,17.48,0,0,1,85.27,55C82,57.65,78.18,59.28,73.76,58.88Z"/></g></g></svg>